HIERARCHY
ROOT Hips
{
  OFFSET 267.745 86.9975 -272.335
  CHANNELS 6 Xposition Yposition Zposition Zrotation Xrotation Yrotation
  JOINT LeftUpLeg
  {
    OFFSET 8.64259 1.95398 -2.38835
    CHANNELS 3 Zrotation Xrotation Yrotation
    JOINT LeftLeg
    {
      OFFSET 43.7702 0 0
      CHANNELS 3 Zrotation Xrotation Yrotation
      JOINT LeftFoot
      {
        OFFSET 40.6238 0 0
        CHANNELS 3 Zrotation Xrotation Yrotation
        JOINT LeftToeBase
        {
          OFFSET 12.7242 0 0
          CHANNELS 3 Zrotation Xrotation Yrotation
          End Site
          {
            OFFSET 0 0 0
          }
        }
      }
    }
  }
  JOINT RightUpLeg
  {
    OFFSET -8.2249 1.95398 -2.59336
    CHANNELS 3 Zrotation Xrotation Yrotation
    JOINT RightLeg
    {
      OFFSET 43.5653 0 0
      CHANNELS 3 Zrotation Xrotation Yrotation
      JOINT RightFoot
      {
        OFFSET 40.6238 0 0
        CHANNELS 3 Zrotation Xrotation Yrotation
        JOINT RightToeBase
        {
          OFFSET 12.7242 0 0
          CHANNELS 3 Zrotation Xrotation Yrotation
          End Site
          {
            OFFSET 0 0 0
          }
        }
      }
    }
  }
  JOINT Spine
  {
    OFFSET 0.165834 0.87714 6.61349
    CHANNELS 3 Zrotation Xrotation Yrotation
    JOINT Spine1
    {
      OFFSET 7.38963 1.71661e-005 0
      CHANNELS 3 Zrotation Xrotation Yrotation
      JOINT Spine2
      {
        OFFSET 11.9445 1.14441e-005 0
        CHANNELS 3 Zrotation Xrotation Yrotation
        JOINT Spine3
        {
          OFFSET 14.7254 4.19617e-005 0
          CHANNELS 3 Zrotation Xrotation Yrotation
          JOINT Spine4
          {
            OFFSET 10.9679 0 0
            CHANNELS 3 Zrotation Xrotation Yrotation
            JOINT RightShoulder
            {
              OFFSET 2.46616 -1.6653 3.69651
              CHANNELS 3 Zrotation Xrotation Yrotation
              JOINT RightArm
              {
                OFFSET 13.0012 0 0
                CHANNELS 3 Zrotation Xrotation Yrotation
                JOINT RightForeArm
                {
                  OFFSET 28.7848 1.52588e-005 0
                  CHANNELS 3 Zrotation Xrotation Yrotation
                  JOINT RightHand
                  {
                    OFFSET 26.5688 1.52588e-005 0
                    CHANNELS 3 Zrotation Xrotation Yrotation
                    End Site
                    {
                      OFFSET 0 0 0
                    }
                  }
                }
              }
            }
            JOINT LeftShoulder
            {
              OFFSET 2.38034 -1.29275 -3.7523
              CHANNELS 3 Zrotation Xrotation Yrotation
              JOINT LeftArm
              {
                OFFSET 16.3182 6.10352e-005 0
                CHANNELS 3 Zrotation Xrotation Yrotation
                JOINT LeftForeArm
                {
                  OFFSET 27.0901 0 0
                  CHANNELS 3 Zrotation Xrotation Yrotation
                  JOINT LeftHand
                  {
                    OFFSET 24.5451 1.52588e-005 0
                    CHANNELS 3 Zrotation Xrotation Yrotation
                    End Site
                    {
                      OFFSET 0 0 0
                    }
                  }
                }
              }
            }
            JOINT Neck
            {
              OFFSET 5.0226 -0.0266342 0
              CHANNELS 3 Zrotation Xrotation Yrotation
              JOINT Head
              {
                OFFSET 6.69364 2.86102e-005 0
                CHANNELS 3 Zrotation Xrotation Yrotation
                End Site
                {
                  OFFSET 0 0 0
                }
              }
            }
          }
        }
      }
    }
  }
}
MOTION
Frames:	9
Frame Time:	0.0416667
-264.295 70.0823 -269.97 93.0638 6.70494 92.9944 174.865 51.8792 81.1955 -40.8738 -62.3525 61.1672 -18.6998 -9.08847 -144.837 -48.352 -15.3246 26.4923 128.992 -0.938249 94.9818 -90.1106 12.6516 -4.72838 160.134 -40.969 28.3532 51.9345 19.5295 144.788 -4.21834 5.29328 -89.7157 16.4082 -8.17679 1.94286 4.76109 -8.08334 2.30302 -17.9824 -8.38006 -0.621939 2.03027 -8.38002 -0.62194 128.741 -20.8389 -22.6973 42.103 -48.4146 -30.0396 -111.932 -68.7991 -110.015 -44.0008 21.1838 -55.5036 -50.5845 -38.6759 142.87 -34.7087 69.5023 39.8363 53.4248 -14.5415 -86.1633 42.1966 -20.5076 -51.8255 83.327 4.41463 10.9005 42.8403 -18.8177 -33.0411 
-264.911 69.701 -270.517 92.8364 7.02557 93.2099 174.869 51.7401 80.7783 -39.0849 -61.7262 64.5723 -17.4052 -10.0669 -146.744 -48.0831 -14.3123 25.5411 128.608 -1.3428 95.2761 -89.6482 13.9272 -4.87211 161.223 -39.7676 29.4684 53.7022 22.0945 144.171 -4.25789 5.27731 -89.744 16.4409 -8.26848 1.90482 4.79447 -8.17662 2.26915 -17.9536 -8.45598 -0.686337 2.05901 -8.45595 -0.686335 128.682 -20.7471 -22.7266 42.195 -48.313 -29.7929 -102.61 -69.6653 -101.565 -43.8496 22.0036 -57.403 -50.5502 -38.697 142.913 -25.887 65.7117 30.6148 52.6861 -10.2759 -90.4714 43.1875 -21.3085 -52.4524 83.3451 4.3913 10.846 42.81 -18.7725 -33.0706 
-266.714 68.5999 -272.1 92.184 7.9259 93.8307 175.216 50.5954 78.6773 -30.0806 -59.2324 77.7365 -14.1252 -12.9408 -151.991 -46.8681 -11.0169 22.4649 127.588 -2.49664 96.0633 -88.3269 17.493 -5.2734 164.327 -36.1283 32.6138 59.7955 29.7842 141.03 -4.36954 5.23223 -89.8244 16.5332 -8.52778 1.79649 4.88864 -8.44042 2.17261 -17.8727 -8.67044 -0.869242 2.1399 -8.67044 -0.86925 128.514 -20.4874 -22.8099 42.4256 -48.0502 -29.0774 -74.9674 -69.2183 -76.3997 -42.4589 23.9374 -63.1501 -50.452 -38.7582 143.034 -13.0379 54.0542 16.5486 52.9476 -0.829679 -99.3533 46.3933 -23.5901 -53.6721 83.3946 4.32517 10.691 42.7275 -18.6437 -33.1513 
-269.664 66.8441 -274.628 91.1553 9.2841 94.8136 175.587 47.233 75.3934 -17.3488 -52.7331 96.1733 -7.79464 -21.6822 -158.876 -42.0917 -4.86877 16.5014 126.247 -4.25235 97.1334 -86.3044 22.749 -5.85757 169.376 -29.5965 37.5605 74.106 41.6105 130.008 -4.53981 5.16311 -89.9496 16.6743 -8.92455 1.6277 5.03272 -8.84419 2.02186 -17.7495 -8.9977 -1.15218 2.26318 -8.9977 -1.15218 128.254 -20.0851 -22.9391 42.7044 -47.7112 -27.9341 -45.5431 -62.4089 -50.6164 -38.3726 25.4613 -72.0396 -50.2981 -38.8556 143.222 -6.2525 37.1769 7.66417 58.8595 15.6133 -112.986 52.4112 -27.0075 -53.9535 83.4671 4.22284 10.4486 42.6061 -18.4424 -33.2709 
-273.791 64.5059 -277.927 89.8043 10.9509 96.112 169.941 47.194 81.783 -9.38437 -52.2505 109.837 15.8849 -39.2535 -158.518 -25.1659 1.17841 8.6971 125.063 -6.37947 98.0221 -83.9089 28.3919 -6.46399 176.987 -17.9471 44.575 100.67 48.9231 103.775 -4.75235 5.0757 -90.1112 16.8521 -9.42268 1.40843 5.21442 -9.35146 1.82534 -17.5947 -9.40633 -1.51463 2.41799 -9.40633 -1.51464 127.92 -19.5651 -23.1054 42.9303 -47.4043 -26.3971 -28.7767 -51.608 -37.9659 -32.2849 25.176 -81.5827 -50.0965 -38.9861 143.466 -4.17918 19.2096 2.51023 72.7056 25.8915 -134.061 61.5321 -30.7139 -51.7879 83.5543 4.09132 10.133 42.4585 -18.1795 -33.4176 
-279.089 61.5673 -281.176 88.19 12.7703 97.6761 160.765 45.332 92.9062 -0.122532 -51.7755 123.851 77.203 -59.1468 -119.768 8.02458 -0.841448 11.544 124.788 -7.46119 97.0268 -82.5098 28.9236 -6.52776 -176.099 14.9381 49.7928 85.6798 41.6931 110.366 -4.99021 4.97572 -90.3013 17.0543 -9.98468 1.14825 5.42117 -9.92439 1.59091 -17.4192 -9.86344 -1.93613 2.59344 -9.86345 -1.93612 127.529 -18.9511 -23.3 43.0157 -47.2517 -24.4803 -20.2182 -41.143 -33.5348 -26.2457 23.292 -89.5322 -49.8543 -39.1472 143.755 -4.87813 2.57854 -0.96996 90.9165 27.1709 -159.059 73.2964 -33.3915 -46.5169 83.6483 3.93825 9.7574 42.2967 -17.865 -33.5814 
-284.241 57.5871 -283.808 86.3808 14.5941 99.4469 153.094 36.5649 104.55 -1.82469 -53.8471 125.1 136.624 -36.5366 -63.395 38.7383 -1.91129 28.6381 124.883 -3.79302 95.3534 -82.9605 21.1286 -5.72465 30.5561 26.1266 126.882 41.2459 -72.6873 -127.429 -5.23671 4.86886 -90.5115 17.2685 -10.5741 0.856345 5.64044 -10.526 1.32613 -17.2337 -10.337 -2.39667 2.77894 -10.3371 -2.39667 127.095 -18.2659 -23.5147 42.9042 -47.3842 -22.169 -15.5076 -32.35 -32.8973 -21.2679 20.7459 -95.4414 -49.578 -39.3375 144.08 -7.41184 -11.9616 -3.84264 105.552 4.51741 -177.62 86.3566 -33.8145 -38.8253 83.7421 3.77147 9.33443 42.1322 -17.5077 -33.7532 
-288.978 54.135 -288.577 84.4552 16.2943 101.355 151.641 26.1964 111.407 -51.9837 -60.5162 79.4947 135.854 6.90982 -31.6493 60.3787 2.60342 38.1307 123.603 -0.894672 98.4657 -84.3715 28.65 -5.10805 -60.1022 14.6377 75.5399 59.1887 -18.041 -49.2682 -5.47698 4.76072 -90.7338 17.483 -11.1575 0.541679 5.86027 -11.1227 1.03843 -17.048 -10.798 -2.8774 2.96465 -10.798 -2.8774 126.634 -17.5322 -23.7417 42.5893 -47.9286 -19.4114 -12.6571 -24.9425 -34.2411 -17.3478 18.1053 -99.7674 -49.2732 -39.5565 144.432 -11.3775 -24.4662 -6.67914 118.046 -38.1082 179.9 98.7807 -31.6202 -30.5154 83.8292 3.59959 8.87669 41.977 -17.1162 -33.9244 
-294.866 50.7083 -294.522 82.4938 17.778 103.327 148.917 17.2205 119.281 -108.044 -28.1995 32.8255 88.433 31.4079 27.5228 81.0251 10.201 44.8865 122.92 -0.103145 102.331 -85.7294 39.2409 -3.98787 -49.3368 35.3518 59.8116 52.6059 -11.9545 -40.5649 -5.69915 4.65609 -90.9611 17.6879 -11.7082 0.212347 6.07039 -11.6874 0.734705 -16.8704 -11.2235 -3.36225 3.14222 -11.2235 -3.36225 126.159 -16.7712 -23.9742 42.1388 -48.9771 -16.1138 -10.7288 -18.342 -36.8751 -14.2065 15.5552 -102.998 -48.9443 -39.8048 144.802 -16.6154 -35.1879 -9.86346 133.87 -59.536 -179.877 109.177 -27.5197 -23.2285 83.9037 3.43048 8.39532 41.8434 -16.6989 -34.0863 
